<svg xmlns="http://www.w3.org/2000/svg" viewBox="0 0 512 512">
  <rect width="512" height="512" rx="112" fill="#C0381C"/>
  <path d="M104 314c28 30 72 30 100 0s72-30 100 0 72 30 100 0v58c-28 30-72 30-100 0s-72-30-100 0-72 30-100 0z" fill="#fff4e6"/>
  <path d="M104 180c28 30 72 30 100 0s72-30 100 0 72 30 100 0v58c-28 30-72 30-100 0s-72-30-100 0-72 30-100 0z" fill="#fff4e6"/>
  <path d="M132 167c22 18 48 18 70 0M132 301c22 18 48 18 70 0" stroke="#8E2611" stroke-width="18" stroke-linecap="round" opacity=".7"/>
</svg>
